<?xml version="1.0" encoding="UTF-8"?>
<svg id="Layer_2" data-name="Layer 2" xmlns="http://www.w3.org/2000/svg" viewBox="0 0 647.38 567.52">
  <defs>
    <style>
      .cls-1 {
        fill: #f24481;
      }

      .cls-2 {
        fill: #f14581;
      }
    </style>
  </defs>
  <g id="Layer_1-2" data-name="Layer 1">
    <g>
      <path class="cls-2" d="M255.19,206.1C195.81,294.94,108.01,350.78,0,352.48l.24-124.48c32.6,7.74,62.93,9.84,94.52,5.73,41.79-6.12,77.28-27.93,104.06-60.43,20.93-26.04,35.61-54.82,48.25-85.76C279.11,9.05,352.7-8.93,433.09,3.66l-25.35,224.98c-29.48,21.09-55.22,44.77-80.22,71.56-25.71,27.55-44.39,58.15-65.09,90.94l25.69-181.46,11.76-96.45c-12.77,32.48-25.21,63.69-44.7,92.86Z"/>
      <path class="cls-1" d="M433.52,331.67c-51.44,65.48-76.47,154.19-82.03,235.84h-121.21c3.86-40.5,12.92-79,28.45-116.54,19.73-44.05,44.93-83.06,75.47-120.43,59.86-71.24,145.78-141.17,240.95-148.96,24.92-2.47,48.73-.95,72.24,7.27l-.18,163.49c-63.14-2.23-123.72-1.96-186.36.96,13.85-23.84,31.07-40.8,49.65-58.17,28.98-28.34,62.46-48.68,99.08-66.5-69.44,10.55-132.78,47.97-176.06,103.05Z"/>
    </g>
  </g>
</svg>