<?xml version="1.0" encoding="UTF-8"?>
<svg id="Layer_2" data-name="Layer 2" xmlns="http://www.w3.org/2000/svg" viewBox="0 0 1385.19 286.85">
  <defs>
    <style>
      .cls-1 {
        fill: #f0457f;
      }

      .cls-2 {
        fill: #f0457e;
      }

      .cls-3 {
        fill: #ef437e;
      }

      .cls-4 {
        fill: #f0427e;
      }

      .cls-5 {
        fill: #f14680;
      }

      .cls-6 {
        fill: #f4437d;
      }

      .cls-7 {
        fill: #f1437e;
      }

      .cls-8 {
        fill: #f1437f;
      }

      .cls-9 {
        fill: #f1447f;
      }

      .cls-10 {
        fill: #f14580;
      }

      .cls-11 {
        fill: #f0427d;
      }

      .cls-12 {
        fill: #f1427d;
      }

      .cls-13 {
        fill: #f24881;
      }

      .cls-14 {
        fill: #f04781;
      }

      .cls-15 {
        fill: #f24481;
      }

      .cls-16 {
        fill: #f0437e;
      }

      .cls-17 {
        fill: #f0447f;
      }

      .cls-18 {
        fill: #f14581;
      }
    </style>
  </defs>
  <g id="Layer_1-2" data-name="Layer 1">
    <g id="HjnheF">
      <g>
        <path class="cls-18" d="M128.99,104.17C98.97,149.08,54.59,177.3,0,178.16l.12-62.92c16.48,3.91,31.81,4.97,47.78,2.9,21.12-3.09,39.06-14.12,52.6-30.54,10.58-13.16,18-27.71,24.39-43.35C141.07,4.57,178.27-4.51,218.91,1.85l-12.81,113.72c-14.9,10.66-27.91,22.63-40.55,36.17-13,13.92-22.44,29.39-32.9,45.97l12.98-91.72,5.95-48.75c-6.45,16.42-12.74,32.19-22.59,46.94Z"/>
        <path class="cls-15" d="M219.12,167.65c-26,33.1-38.65,77.94-41.46,119.21h-61.27c1.95-20.47,6.53-39.93,14.38-58.91,9.97-22.27,22.71-41.98,38.15-60.87,30.25-36.01,73.68-71.36,121.79-75.29,12.6-1.25,24.63-.48,36.51,3.67l-.09,82.64c-31.91-1.12-62.54-.99-94.2.48,7-12.05,15.7-20.62,25.1-29.4,14.65-14.33,31.57-24.61,50.08-33.61-35.1,5.33-67.11,24.24-88.99,52.09Z"/>
        <polygon class="cls-8" points="539.14 68.12 527.26 106.43 504.39 178.12 485.8 177.92 461.43 93.79 437.05 177.71 417.81 177.9 383.55 68.29 405.55 67.98 428.15 148.31 451.8 67.99 472.84 68.02 495.14 147.41 518.5 67.92 539.14 68.12"/>
        <path class="cls-11" d="M697.41,177.85l-18.13.26-.36-45.14c-.04-4.46-1.87-8.62-4.87-10.83-3.33-2.45-7.4-3.46-11.68-2.54-7.56,1.63-13.37,7.44-13.41,15.47l-.23,42.95h-18.01s-.05-72.01-.05-72.01l17.22.05.61,9.62c5.72-7.13,12.82-10.55,21.22-11.17,9.96-.74,19.19,3.56,24.37,12.56,6.35-9.34,17.34-13.31,28.66-12.48,13.93,1.02,23.96,11.31,24.01,25.44l.17,48.05h-18.59s-.32-45.14-.32-45.14c-.03-4.36-1.76-8.71-5.18-11.02-5.42-3.66-11.54-3.14-16.82-.33s-8.29,7.73-8.62,14.37v41.89Z"/>
        <path class="cls-17" d="M1089.71,151.94c15.14,17.4,46.06,16.45,62.56.16l11.62,9.06c-11.4,16.11-29.58,20.16-49.2,19.63-23.21-.62-43.76-13.89-51.99-35.78-8.01-21.32-3.75-44.82,11.06-62.14,21.71-25.38,67.09-26.72,89.22-.93l-10.99,10.55c-10.46-9.97-24.14-14.34-38.02-12.38-16.44,2.32-28.84,14.08-33.03,30.03-3.83,14.57-1.24,30.28,8.77,41.79Z"/>
        <path class="cls-10" d="M1383.55,129.18c-3.9-15.42-17.3-24.59-32.67-24.82-21.67-.33-36.8,15.33-37.56,36.58-.79,22.5,15.67,39.75,38.56,39.06,12.17-.37,23.75-4.5,30.87-15.26l-11-8.93c-8.22,11.95-25.41,14.14-35.89,3.64-3.17-3.18-3.97-7.44-4.86-11.58l53.88-.17c.69-6.21.2-12.47-1.33-18.52ZM1331.11,135.16c1.6-12.3,9.91-19.18,22.73-17.27,8,1.2,13,7.81,13.82,17.02l-36.55.25Z"/>
        <path class="cls-9" d="M826.86,117.81c-6.65-9.48-17.74-13.65-28.99-13.36-21.27.55-35.38,16.85-35.72,37.45-.36,21.66,14.72,37.74,36.7,38.1,12.91.22,25.6-3.71,33.15-15.4l-11.13-8.92c-5.12,7.79-13.06,11.25-22.6,10.3-10.32-1.03-17.64-8.14-18.64-18.15l54.1-.03c1.08-10.66-.72-21.22-6.87-29.99ZM779.87,135.11c.86-7.47,5.11-13.18,10.39-15.64,7.14-3.32,15.11-2.72,20.58,2.24,3.55,3.23,5.21,7.27,5.78,13.25l-36.75.15Z"/>
        <path class="cls-7" d="M1239.52,130.92c-.04-7.14-2.46-14.32-7.66-19.05-12.64-11.46-41.45-9.62-55.05,4.41l8.9,8.95c7.65-6.85,17.7-9.15,27.41-6.59,6.35,1.68,9.73,7.87,8.53,14.4l-22.98.8c-7.37,1.37-14.72,3.49-20.11,9.01-6.95,7.1-8.15,19.42-2.25,27.85,9.27,13.26,36.31,12.41,46.16-2.05l.34,9.34h16.93s-.22-47.07-.22-47.07ZM1220.3,158c-3.96,7.27-11.94,9.57-19.53,8.99-5.18-.4-9.3-3.33-10.25-7.7-2.88-13.18,15.79-15.35,31.18-14.62.65,4.61.83,9.24-1.4,13.33Z"/>
        <path class="cls-16" d="M604.82,116.76c-15.9-17.51-45.31-16.44-59.57,2.62-9.4,12.56-9.59,30.6-1.83,43.8,6.51,11.06,18.74,16.59,31.77,16.77,13.53.19,25.34-5.38,32.54-16.12,9.6-14.32,8.95-33.99-2.91-47.07ZM594.88,149.37c-1.95,8.34-8.14,13.83-15.11,15.19-7.98,1.55-16-1.33-20.22-8.35-7.15-11.92-3.28-32.34,10.96-36.21,7.38-2.01,15.34-.01,20.05,6.06,5.08,6.54,6.27,14.95,4.32,23.31Z"/>
        <path class="cls-1" d="M892.71,121.4c-5.44-3.66-12.11-2.81-17.48.29-4.83,2.79-8.12,8.73-8.13,15.27l-.08,41.01-18.16.04v-71.84s17.92-.05,17.92-.05l.43,10c9.43-13.39,29.53-15.87,41.7-4.4,5.11,4.82,7.59,12.27,7.6,19.16l.11,47.31-17.83-.18-.26-45.06c-.03-4.39-1.81-8.87-5.8-11.55Z"/>
        <path class="cls-12" d="M989.64,176.93c-15.35,6.1-37.08,3.7-46.43-11.05l10.41-9.05c6.61,9.91,19.4,13,29.69,7.73,2.59-1.33,3.71-4.54,3.35-6.95s-2.53-4.58-5.31-5.33l-19.46-5.22c-8.54-2.29-14.84-8.1-16.07-15.98-1.33-8.48,1.75-17.16,9.51-21.69,14.84-8.65,34.78-5.74,46.18,6.99l-9.9,9.69c-6.34-7.28-15.98-10.59-24.76-7.1-3.23,1.28-4.58,4.53-4.32,7.42s2.76,4.97,6.09,5.83l18.88,4.88c9.38,2.42,15.33,9.57,15.82,18.4.52,9.57-4.34,17.73-13.67,21.44Z"/>
        <path class="cls-10" d="M1277.33,177.87l-18.64.17.03-71.84,18.58.07c.25,3.47-.58,6.28.6,10.03,5.38-9.57,16.88-13.18,27.53-9.87l-.1,16.93c-6.69-2.37-12.51-2.53-18.69.63-4.27,2.19-8.97,7.46-9.02,13.99l-.28,39.89Z"/>
        <path class="cls-3" d="M698.37,234.18c-4.34-6.18-12.05-9.86-20.6-9.09-7.66.69-14.19,5.46-17.28,11.43-3.64,7.01-3.21,15.3.64,22.16,3.76,6.71,11.78,10.22,19.06,10.14,7.19-.09,14.48-3.35,18.71-10.23,4.79-7.78,4.47-17.27-.53-24.41ZM679.19,261.23c-7.66-.47-13.22-7.27-12.78-15.36.41-7.62,6.54-13.63,13.83-13.6,7.5.03,13.71,6.61,13.4,15.04-.31,8.68-6.94,14.37-14.45,13.92Z"/>
        <path class="cls-5" d="M763.67,245.44c5.26-3.77,5.85-8.54,4.18-13.15-1.3-3.58-5.54-6.53-10.06-6.53h-19.89s.14,42.32.14,42.32l22.4-.41c5.9-.11,9.73-5.51,10.25-10.28.61-5.61-2.17-9.53-7.02-11.95ZM745.77,232.2l10.58.28c2.9.08,4.66,2.73,4.74,4.96.09,2.65-1.42,5.57-4.92,5.56l-10.4-.02v-10.78ZM758.27,261.1l-12.6.41.1-12.49,11.77.29c3.22.08,5.32,2.68,5.56,5.16.28,2.87-1.2,6.51-4.83,6.63Z"/>
        <path class="cls-2" d="M1029.22,267.62c-2.24,1.06-6.39,1.11-7.67-.4l-20.15-28.87-.25,29.53c-2.83.41-4.9.35-7.5-.09l-.07-41.86c2.93-.69,5.3-.55,7.97.1l19.99,29.36.18-29.44c2.46-.48,4.65-.54,7.45.05l.05,41.62Z"/>
        <path class="cls-13" d="M882.26,252.92l-10.43-.08c-.46-2.43-.48-4.43-.06-6.88l18.12-.03.05,15.15c-9.45,10.24-27.04,10.81-35.53-.47-7.43-9.86-5.53-23.07,3.11-30.42,9.1-7.74,23.1-7.04,30.85,2.34l-5.3,5.46c-2.75-2.72-5.68-5.47-9.52-5.8-9.56-.81-16.73,7.72-15.26,16.91.8,5.01,3.28,8.88,7.1,10.91,4.15,2.2,9.05,2.09,13.4.02,2.54-1.21,4.03-3.16,3.47-7.11Z"/>
        <path class="cls-14" d="M960.2,226.35l-15.14,23.83-.13,17.88-7.89-.14-.05-17.93-15.13-23.97c2.97-.69,5.7-.65,8.7-.04l10.53,17.18,10.6-17.26c2.67-.25,4.41-.87,8.5.44Z"/>
        <path class="cls-4" d="M934.51,104.73c-4.17-.53-7.42-.95-9.73-1.33-.85-1.13-.63-2.53.01-4.35l10.82-30.57c1.84-5.19,15.57,2.16,15.57,2.16l-16.67,34.1Z"/>
        <path class="cls-6" d="M802.29,269.14c-.69,1.7-4.4,1.27-4.9-.13l17.55-42.83c.69-1.69,4.17-1.54,4.91-.46l-17.56,43.42Z"/>
      </g>
    </g>
  </g>
</svg>